<svg xmlns="http://www.w3.org/2000/svg" style="display: none;">

    <symbol id="arrow-left" viewBox="0 0 50 50">
        <path d="M3.72679 26.7288C3.26518 26.2736 3 25.66 3 25.0069C3 24.3537 3.26518 23.7401 3.72679 23.2849L21.0125 6.65882C21.9554 5.74835 23.4482 5.78794 24.342 6.738C25.2357 7.68806 25.2062 9.19232 24.2634 10.0929L11.2402 22.6317H44.6429C45.9491 22.6317 47 23.6906 47 25.0069C47 26.3231 45.9491 27.382 44.6429 27.382H11.2402L24.2732 39.9109C25.2161 40.8214 25.2455 42.3158 24.3518 43.2658C23.458 44.2159 21.9652 44.2456 21.0223 43.345L3.73661 26.7189L3.72679 26.7288Z"/>
    </symbol>

    <symbol id="arrow-right" viewBox="0 0 50 50">
        <path d="M46.2732 23.2712C46.7348 23.7264 47 24.34 47 24.9931C47 25.6463 46.7348 26.2599 46.2732 26.7151L28.9875 43.3412C28.0446 44.2516 26.5518 44.2121 25.658 43.262C24.7643 42.3119 24.7938 40.8077 25.7366 39.9071L38.7598 27.3683H5.35714C4.05089 27.3683 3 26.3094 3 24.9931C3 23.6769 4.05089 22.618 5.35714 22.618H38.7598L25.7268 10.0891C24.7839 9.1786 24.7545 7.68423 25.6482 6.73417C26.542 5.78411 28.0348 5.75443 28.9777 6.655L46.2634 23.2811L46.2732 23.2712Z"/>
    </symbol>

    <symbol id="bars" viewBox="0 0 50 50">
        <path d="M3.22223 8.88888C3.22223 7.59582 4.26251 6.55554 5.55556 6.55554H44.4444C45.7375 6.55554 46.7778 7.59582 46.7778 8.88888C46.7778 10.1819 45.7375 11.2222 44.4444 11.2222H5.55556C4.26251 11.2222 3.22223 10.1819 3.22223 8.88888ZM3.22223 24.4444C3.22223 23.1514 4.26251 22.1111 5.55556 22.1111H44.4444C45.7375 22.1111 46.7778 23.1514 46.7778 24.4444C46.7778 25.7375 45.7375 26.7778 44.4444 26.7778H5.55556C4.26251 26.7778 3.22223 25.7375 3.22223 24.4444ZM46.7778 40C46.7778 41.293 45.7375 42.3333 44.4444 42.3333H5.55556C4.26251 42.3333 3.22223 41.293 3.22223 40C3.22223 38.7069 4.26251 37.6667 5.55556 37.6667H44.4444C45.7375 37.6667 46.7778 38.7069 46.7778 40Z"/>
    </symbol>

    <symbol id="burger" viewBox="0 0 50 50">
        <path d="M38.594 13.1062C37.849 12.2714 36.9492 11.4268 35.8268 10.6607C35.8365 10.7196 35.8365 10.7884 35.8365 10.8571C35.8365 11.7214 35.1399 12.4286 34.2884 12.4286C33.437 12.4286 32.7404 11.7214 32.7404 10.8571C32.7404 10.2187 33.108 9.67857 33.6402 9.42321C31.7148 8.52946 29.3346 7.89107 26.3546 7.74375C26.4707 7.96964 26.5384 8.225 26.5384 8.5C26.5384 9.36429 25.8418 10.0714 24.9903 10.0714C24.1389 10.0714 23.4422 9.36429 23.4422 8.5C23.4422 8.225 23.51 7.96964 23.6261 7.74375C20.6557 7.89107 18.2659 8.52946 16.3405 9.42321C16.8726 9.66875 17.2403 10.2187 17.2403 10.8571C17.2403 11.7214 16.5436 12.4286 15.6922 12.4286C14.8408 12.4286 14.1441 11.7214 14.1441 10.8571C14.1441 10.7884 14.1441 10.7295 14.1538 10.6607C13.0314 11.4268 12.122 12.2714 11.3866 13.1062C10.1482 14.5009 9.30639 15.9545 8.76456 17.1429H41.2161C40.6646 15.9545 39.8325 14.5009 38.594 13.1062ZM43.8575 21.8571H6.14251C4.58476 21.8571 3.32695 20.5804 3.32695 18.9991C3.32695 18.8125 3.3463 18.6357 3.385 18.4491C3.8978 16.3866 7.85507 3 25 3C42.1449 3 46.1022 16.3866 46.615 18.4491C46.6634 18.6357 46.673 18.8125 46.673 18.9991C46.673 20.5804 45.4152 21.8571 43.8575 21.8571ZM12.6154 42.2857H37.3846C39.4068 42.2857 41.129 40.9696 41.7676 39.1429H8.23241C8.87099 40.9696 10.5932 42.2857 12.6154 42.2857ZM3.32695 37.5714C3.32695 35.833 4.71054 34.4286 6.4231 34.4286H43.5769C45.2895 34.4286 46.673 35.833 46.673 37.5714C46.673 42.7768 42.5126 47 37.3846 47H12.6154C7.4874 47 3.32695 42.7768 3.32695 37.5714ZM7.97118 32.0714C6.02641 32.0714 4.50736 31.5705 3.45273 31.0402C2.93026 30.775 2.52389 30.5 2.22395 30.2741C2.07881 30.1661 1.96271 30.0679 1.86595 29.9795C1.81758 29.9402 1.77888 29.9009 1.74985 29.8714L1.71115 29.8321L1.6918 29.8125L1.68212 29.8027C1.68212 29.8027 1.68212 29.8027 3.32695 28.133L1.68212 29.8125C0.772626 28.8893 0.772626 27.3964 1.68212 26.483C2.57226 25.5795 4.02358 25.5598 4.93308 26.4438C4.94275 26.4536 4.97178 26.4732 5.01048 26.5027C5.10724 26.5714 5.28139 26.6893 5.52328 26.817C6.01673 27.0625 6.81979 27.3571 7.97118 27.3571C8.76456 27.3571 9.44185 26.9839 10.8738 26.1196L10.8932 26.1098C12.1703 25.3339 14.0183 24.2143 16.4856 24.2143C18.9141 24.2143 20.5686 25.3045 21.72 26.0607L21.8748 26.1589C23.0359 26.9152 23.7906 27.3571 25 27.3571C26.1804 27.3571 26.8383 26.9446 27.9704 26.1786L28.0284 26.1393C29.2185 25.3339 30.873 24.2143 33.5144 24.2143C36.1461 24.2143 37.9748 25.3241 39.281 26.1393C40.6839 27.0232 41.2645 27.3571 42.0288 27.3571C43.1802 27.3571 43.9833 27.0723 44.4767 26.817C44.7283 26.6893 44.9024 26.5714 44.9895 26.5027C45.0282 26.4732 45.0572 26.4438 45.0669 26.4438C45.9764 25.5598 47.4181 25.5696 48.3179 26.483C49.2274 27.4063 49.2274 28.8991 48.3179 29.8125L46.673 28.1429C48.3179 29.8125 48.3179 29.8125 48.3179 29.8125L48.3082 29.8223L48.2889 29.842L48.2501 29.8813C48.2211 29.9107 48.1824 29.95 48.134 29.9893C48.047 30.0679 47.9309 30.1661 47.7761 30.2839C47.4858 30.5098 47.0794 30.7848 46.5473 31.05C45.4926 31.5705 43.9736 32.0714 42.0288 32.0714C39.8809 32.0714 38.2264 31.0205 37.1137 30.3134C37.0169 30.2545 36.9299 30.1955 36.8524 30.1464C35.6333 29.3902 34.7529 28.9286 33.5144 28.9286C32.334 28.9286 31.6761 29.3411 30.544 30.1071L30.486 30.1464C29.2959 30.9518 27.6414 32.0714 25 32.0714C22.3392 32.0714 20.5977 30.9321 19.3592 30.1268C18.1111 29.3116 17.4918 28.9286 16.4856 28.9286C15.4213 28.9286 14.5698 29.3705 13.254 30.1661L13.0314 30.3036C11.8607 31.0205 10.1385 32.0714 7.98085 32.0714H7.97118Z"/>
    </symbol>

    <symbol id="chevron-right" viewBox="0 0 50 50">
        <path d="M35.354 23.4194C36.2153 24.2899 36.2153 25.6974 35.354 26.5586L17.7613 44.3472C16.9 45.2176 15.5073 45.2176 14.6551 44.3472C13.803 43.4767 13.7938 42.0692 14.6551 41.208L30.6901 25.0029L14.646 8.78853C13.7847 7.91808 13.7847 6.51055 14.646 5.64937C15.5073 4.78818 16.9 4.77892 17.7522 5.64937L35.354 23.4194Z" />
    </symbol>

    <symbol id="envelope" viewBox="0 0 50 50">
        <path d="M6.25 10.75C5.39062 10.75 4.6875 11.4625 4.6875 12.3333V14.5203L21.5332 28.5328C23.5547 30.2151 26.4551 30.2151 28.4766 28.5328L45.3125 14.5203V12.3333C45.3125 11.4625 44.6094 10.75 43.75 10.75H6.25ZM4.6875 20.6656V37.6667C4.6875 38.5375 5.39062 39.25 6.25 39.25H43.75C44.6094 39.25 45.3125 38.5375 45.3125 37.6667V20.6656L31.4453 32.2042C27.6953 35.3214 22.2949 35.3214 18.5547 32.2042L4.6875 20.6656ZM0 12.3333C0 8.8401 2.80273 6 6.25 6H43.75C47.1973 6 50 8.8401 50 12.3333V37.6667C50 41.1599 47.1973 44 43.75 44H6.25C2.80273 44 0 41.1599 0 37.6667V12.3333Z"/>
    </symbol>

    <symbol id="linkedin" viewBox="0 0 50 50">
        <path d="M41 4H9C6.24 4 4 6.24 4 9V41C4 43.76 6.24 46 9 46H41C43.76 46 46 43.76 46 41V9C46 6.24 43.76 4 41 4ZM17 20V39H11V20H17ZM11 14.47C11 13.07 12.2 12 14 12C15.8 12 16.93 13.07 17 14.47C17 15.87 15.88 17 14 17C12.2 17 11 15.87 11 14.47ZM39 39H33C33 39 33 29.74 33 29C33 27 32 25 29.5 24.96H29.42C27 24.96 26 27.02 26 29C26 29.91 26 39 26 39H20V20H26V22.56C26 22.56 27.93 20 31.81 20C35.78 20 39 22.73 39 28.26V39Z"/>
    </symbol>

</svg>
