<svg xmlns="http://www.w3.org/2000/svg" style="display: none;">

    <symbol id="arrow-left" viewBox="0 0 50 50">
        <path d="M3.72679 26.7288C3.26518 26.2736 3 25.66 3 25.0069C3 24.3537 3.26518 23.7401 3.72679 23.2849L21.0125 6.65882C21.9554 5.74835 23.4482 5.78794 24.342 6.738C25.2357 7.68806 25.2062 9.19232 24.2634 10.0929L11.2402 22.6317H44.6429C45.9491 22.6317 47 23.6906 47 25.0069C47 26.3231 45.9491 27.382 44.6429 27.382H11.2402L24.2732 39.9109C25.2161 40.8214 25.2455 42.3158 24.3518 43.2658C23.458 44.2159 21.9652 44.2456 21.0223 43.345L3.73661 26.7189L3.72679 26.7288Z"/>
    </symbol>

    <symbol id="arrow-right" viewBox="0 0 50 50">
        <path d="M46.2732 23.2712C46.7348 23.7264 47 24.34 47 24.9931C47 25.6463 46.7348 26.2599 46.2732 26.7151L28.9875 43.3412C28.0446 44.2516 26.5518 44.2121 25.658 43.262C24.7643 42.3119 24.7938 40.8077 25.7366 39.9071L38.7598 27.3683H5.35714C4.05089 27.3683 3 26.3094 3 24.9931C3 23.6769 4.05089 22.618 5.35714 22.618H38.7598L25.7268 10.0891C24.7839 9.1786 24.7545 7.68423 25.6482 6.73417C26.542 5.78411 28.0348 5.75443 28.9777 6.655L46.2634 23.2811L46.2732 23.2712Z"/>
    </symbol>

    <symbol id="envelope" viewBox="0 0 50 50">
        <path d="M6.25 10.75C5.39062 10.75 4.6875 11.4625 4.6875 12.3333V14.5203L21.5332 28.5328C23.5547 30.2151 26.4551 30.2151 28.4766 28.5328L45.3125 14.5203V12.3333C45.3125 11.4625 44.6094 10.75 43.75 10.75H6.25ZM4.6875 20.6656V37.6667C4.6875 38.5375 5.39062 39.25 6.25 39.25H43.75C44.6094 39.25 45.3125 38.5375 45.3125 37.6667V20.6656L31.4453 32.2042C27.6953 35.3214 22.2949 35.3214 18.5547 32.2042L4.6875 20.6656ZM0 12.3333C0 8.8401 2.80273 6 6.25 6H43.75C47.1973 6 50 8.8401 50 12.3333V37.6667C50 41.1599 47.1973 44 43.75 44H6.25C2.80273 44 0 41.1599 0 37.6667V12.3333Z"/>
    </symbol>

    <symbol id="linkedin" viewBox="0 0 50 50">
        <path d="M41 4H9C6.24 4 4 6.24 4 9V41C4 43.76 6.24 46 9 46H41C43.76 46 46 43.76 46 41V9C46 6.24 43.76 4 41 4ZM17 20V39H11V20H17ZM11 14.47C11 13.07 12.2 12 14 12C15.8 12 16.93 13.07 17 14.47C17 15.87 15.88 17 14 17C12.2 17 11 15.87 11 14.47ZM39 39H33C33 39 33 29.74 33 29C33 27 32 25 29.5 24.96H29.42C27 24.96 26 27.02 26 29C26 29.91 26 39 26 39H20V20H26V22.56C26 22.56 27.93 20 31.81 20C35.78 20 39 22.73 39 28.26V39Z"/>
    </symbol>

</svg>