<svg viewBox="0 0 50 50" fill="currentColor" aria-hidden="true" focusable="false">
	<path d="M3.72679 26.7288C3.26518 26.2736 3 25.66 3 25.0069C3 24.3537 3.26518 23.7401 3.72679 23.2849L21.0125 6.65882C21.9554 5.74835 23.4482 5.78794 24.342 6.738C25.2357 7.68806 25.2062 9.19232 24.2634 10.0929L11.2402 22.6317H44.6429C45.9491 22.6317 47 23.6906 47 25.0069C47 26.3231 45.9491 27.382 44.6429 27.382H11.2402L24.2732 39.9109C25.2161 40.8214 25.2455 42.3158 24.3518 43.2658C23.458 44.2159 21.9652 44.2456 21.0223 43.345L3.73661 26.7189L3.72679 26.7288Z" />
    
</svg>