<svg viewBox="0 0 50 50" fill="currentColor" aria-hidden="true" focusable="false">
	<path d="M46.2732 23.2712C46.7348 23.7264 47 24.34 47 24.9931C47 25.6463 46.7348 26.2599 46.2732 26.7151L28.9875 43.3412C28.0446 44.2516 26.5518 44.2121 25.658 43.262C24.7643 42.3119 24.7938 40.8077 25.7366 39.9071L38.7598 27.3683H5.35714C4.05089 27.3683 3 26.3094 3 24.9931C3 23.6769 4.05089 22.618 5.35714 22.618H38.7598L25.7268 10.0891C24.7839 9.1786 24.7545 7.68423 25.6482 6.73417C26.542 5.78411 28.0348 5.75443 28.9777 6.655L46.2634 23.2811L46.2732 23.2712Z" />
    
</svg>