<svg viewBox="0 0 50 50" fill="currentColor" aria-hidden="true" focusable="false">
	<path d="M3.22223 8.88888C3.22223 7.59582 4.26251 6.55554 5.55556 6.55554H44.4444C45.7375 6.55554 46.7778 7.59582 46.7778 8.88888C46.7778 10.1819 45.7375 11.2222 44.4444 11.2222H5.55556C4.26251 11.2222 3.22223 10.1819 3.22223 8.88888ZM3.22223 24.4444C3.22223 23.1514 4.26251 22.1111 5.55556 22.1111H44.4444C45.7375 22.1111 46.7778 23.1514 46.7778 24.4444C46.7778 25.7375 45.7375 26.7778 44.4444 26.7778H5.55556C4.26251 26.7778 3.22223 25.7375 3.22223 24.4444ZM46.7778 40C46.7778 41.293 45.7375 42.3333 44.4444 42.3333H5.55556C4.26251 42.3333 3.22223 41.293 3.22223 40C3.22223 38.7069 4.26251 37.6667 5.55556 37.6667H44.4444C45.7375 37.6667 46.7778 38.7069 46.7778 40Z" />
    
</svg>