<svg viewBox="0 0 50 50" fill="currentColor" aria-hidden="true" focusable="false">
	<path d="M38.594 13.1062C37.849 12.2714 36.9492 11.4268 35.8268 10.6607C35.8365 10.7196 35.8365 10.7884 35.8365 10.8571C35.8365 11.7214 35.1399 12.4286 34.2884 12.4286C33.437 12.4286 32.7404 11.7214 32.7404 10.8571C32.7404 10.2187 33.108 9.67857 33.6402 9.42321C31.7148 8.52946 29.3346 7.89107 26.3546 7.74375C26.4707 7.96964 26.5384 8.225 26.5384 8.5C26.5384 9.36429 25.8418 10.0714 24.9903 10.0714C24.1389 10.0714 23.4422 9.36429 23.4422 8.5C23.4422 8.225 23.51 7.96964 23.6261 7.74375C20.6557 7.89107 18.2659 8.52946 16.3405 9.42321C16.8726 9.66875 17.2403 10.2187 17.2403 10.8571C17.2403 11.7214 16.5436 12.4286 15.6922 12.4286C14.8408 12.4286 14.1441 11.7214 14.1441 10.8571C14.1441 10.7884 14.1441 10.7295 14.1538 10.6607C13.0314 11.4268 12.122 12.2714 11.3866 13.1062C10.1482 14.5009 9.30639 15.9545 8.76456 17.1429H41.2161C40.6646 15.9545 39.8325 14.5009 38.594 13.1062ZM43.8575 21.8571H6.14251C4.58476 21.8571 3.32695 20.5804 3.32695 18.9991C3.32695 18.8125 3.3463 18.6357 3.385 18.4491C3.8978 16.3866 7.85507 3 25 3C42.1449 3 46.1022 16.3866 46.615 18.4491C46.6634 18.6357 46.673 18.8125 46.673 18.9991C46.673 20.5804 45.4152 21.8571 43.8575 21.8571ZM12.6154 42.2857H37.3846C39.4068 42.2857 41.129 40.9696 41.7676 39.1429H8.23241C8.87099 40.9696 10.5932 42.2857 12.6154 42.2857ZM3.32695 37.5714C3.32695 35.833 4.71054 34.4286 6.4231 34.4286H43.5769C45.2895 34.4286 46.673 35.833 46.673 37.5714C46.673 42.7768 42.5126 47 37.3846 47H12.6154C7.4874 47 3.32695 42.7768 3.32695 37.5714ZM7.97118 32.0714C6.02641 32.0714 4.50736 31.5705 3.45273 31.0402C2.93026 30.775 2.52389 30.5 2.22395 30.2741C2.07881 30.1661 1.96271 30.0679 1.86595 29.9795C1.81758 29.9402 1.77888 29.9009 1.74985 29.8714L1.71115 29.8321L1.6918 29.8125L1.68212 29.8027C1.68212 29.8027 1.68212 29.8027 3.32695 28.133L1.68212 29.8125C0.772626 28.8893 0.772626 27.3964 1.68212 26.483C2.57226 25.5795 4.02358 25.5598 4.93308 26.4438C4.94275 26.4536 4.97178 26.4732 5.01048 26.5027C5.10724 26.5714 5.28139 26.6893 5.52328 26.817C6.01673 27.0625 6.81979 27.3571 7.97118 27.3571C8.76456 27.3571 9.44185 26.9839 10.8738 26.1196L10.8932 26.1098C12.1703 25.3339 14.0183 24.2143 16.4856 24.2143C18.9141 24.2143 20.5686 25.3045 21.72 26.0607L21.8748 26.1589C23.0359 26.9152 23.7906 27.3571 25 27.3571C26.1804 27.3571 26.8383 26.9446 27.9704 26.1786L28.0284 26.1393C29.2185 25.3339 30.873 24.2143 33.5144 24.2143C36.1461 24.2143 37.9748 25.3241 39.281 26.1393C40.6839 27.0232 41.2645 27.3571 42.0288 27.3571C43.1802 27.3571 43.9833 27.0723 44.4767 26.817C44.7283 26.6893 44.9024 26.5714 44.9895 26.5027C45.0282 26.4732 45.0572 26.4438 45.0669 26.4438C45.9764 25.5598 47.4181 25.5696 48.3179 26.483C49.2274 27.4063 49.2274 28.8991 48.3179 29.8125L46.673 28.1429C48.3179 29.8125 48.3179 29.8125 48.3179 29.8125L48.3082 29.8223L48.2889 29.842L48.2501 29.8813C48.2211 29.9107 48.1824 29.95 48.134 29.9893C48.047 30.0679 47.9309 30.1661 47.7761 30.2839C47.4858 30.5098 47.0794 30.7848 46.5473 31.05C45.4926 31.5705 43.9736 32.0714 42.0288 32.0714C39.8809 32.0714 38.2264 31.0205 37.1137 30.3134C37.0169 30.2545 36.9299 30.1955 36.8524 30.1464C35.6333 29.3902 34.7529 28.9286 33.5144 28.9286C32.334 28.9286 31.6761 29.3411 30.544 30.1071L30.486 30.1464C29.2959 30.9518 27.6414 32.0714 25 32.0714C22.3392 32.0714 20.5977 30.9321 19.3592 30.1268C18.1111 29.3116 17.4918 28.9286 16.4856 28.9286C15.4213 28.9286 14.5698 29.3705 13.254 30.1661L13.0314 30.3036C11.8607 31.0205 10.1385 32.0714 7.98085 32.0714H7.97118Z" />
    
</svg>