<svg viewBox="0 0 50 50" fill="currentColor" aria-hidden="true" focusable="false">
	<path d="M6.25 10.75C5.39062 10.75 4.6875 11.4625 4.6875 12.3333V14.5203L21.5332 28.5328C23.5547 30.2151 26.4551 30.2151 28.4766 28.5328L45.3125 14.5203V12.3333C45.3125 11.4625 44.6094 10.75 43.75 10.75H6.25ZM4.6875 20.6656V37.6667C4.6875 38.5375 5.39062 39.25 6.25 39.25H43.75C44.6094 39.25 45.3125 38.5375 45.3125 37.6667V20.6656L31.4453 32.2042C27.6953 35.3214 22.2949 35.3214 18.5547 32.2042L4.6875 20.6656ZM0 12.3333C0 8.8401 2.80273 6 6.25 6H43.75C47.1973 6 50 8.8401 50 12.3333V37.6667C50 41.1599 47.1973 44 43.75 44H6.25C2.80273 44 0 41.1599 0 37.6667V12.3333Z" />
    
</svg>